<?xml version="1.0" standalone="no"?>
<!DOCTYPE svg PUBLIC "-//W3C//DTD SVG 20010904//EN"
 "http://www.w3.org/TR/2001/REC-SVG-20010904/DTD/svg10.dtd">
<svg version="1.0" xmlns="http://www.w3.org/2000/svg"
 width="200.000000pt" height="200.000000pt" viewBox="0 0 200.000000 200.000000"
 preserveAspectRatio="xMidYMid meet">
<metadata>
Created by potrace 1.10, written by Peter Selinger 2001-2011
</metadata>
<g transform="translate(0.000000,200.000000) scale(0.100000,-0.100000)"
fill="#000000" stroke="none">
<path d="M925 1794 c-106 -17 -234 -84 -308 -162 -40 -41 -45 -67 -16 -85 14
-9 29 0 78 44 115 105 260 152 397 131 131 -21 262 -95 262 -149 0 -38 46 -77
81 -68 40 10 61 34 61 72 0 40 -30 73 -65 73 -14 0 -46 16 -71 35 -57 44 -91
61 -163 86 -55 19 -197 32 -256 23z m307 -69 c8 3 21 -1 28 -10 10 -12 10 -15
-4 -15 -11 0 -14 5 -10 12 5 8 2 9 -9 5 -22 -8 -49 2 -41 15 4 7 9 6 14 -1 3
-7 13 -9 22 -6z m101 -67 c-4 -8 0 -9 11 -5 10 4 15 3 11 -3 -6 -9 8 -14 28
-11 11 2 8 -13 -6 -33 -11 -15 -15 -15 -24 -4 -6 7 -11 17 -12 21 0 5 -16 21
-35 36 -20 16 -33 31 -30 34 10 9 64 -24 57 -35z m92 -64 c12 -12 13 -19 4
-30 -6 -8 -18 -14 -26 -14 -19 0 -28 27 -13 45 15 19 15 19 35 -1z"/>
<path d="M944 1576 c-3 -8 -32 -23 -64 -35 -102 -37 -175 -125 -199 -240 -10
-45 -9 -57 3 -69 19 -20 36 -7 36 28 0 16 9 54 21 84 36 97 158 186 214 156
46 -25 94 32 59 71 -20 22 -62 25 -70 5z m50 -24 c2 -4 1 -14 -4 -22 -7 -11
-12 -12 -21 -3 -6 6 -8 16 -5 22 8 13 23 14 30 3z"/>
<path d="M1112 1527 c-14 -16 -7 -25 45 -60 71 -49 113 -130 113 -221 0 -77
-16 -123 -48 -138 -51 -24 -37 -88 19 -88 31 0 47 20 47 60 0 14 8 50 17 80
39 132 -24 291 -142 357 -33 18 -43 20 -51 10z"/>
<path d="M450 1390 c-24 -24 -27 -82 -5 -100 10 -9 15 -32 15 -76 0 -91 39
-205 99 -290 67 -96 151 -161 263 -202 59 -22 82 -21 92 4 9 24 -5 43 -42 55
-158 50 -286 184 -328 342 -21 79 -18 136 8 164 29 31 28 80 -1 105 -30 24
-76 23 -101 -2z m78 -53 c2 -9 -4 -20 -13 -23 -20 -8 -50 19 -40 36 10 17 49
8 53 -13z"/>
<path d="M929 1347 c-60 -40 -77 -114 -40 -171 26 -39 57 -55 106 -55 52 -1
84 16 108 57 68 116 -63 244 -174 169z m105 -23 c10 -10 16 -11 16 -4 0 7 8 2
18 -10 21 -25 30 -110 12 -110 -6 0 -9 -4 -6 -9 3 -4 -4 -17 -16 -27 -12 -11
-18 -14 -14 -7 5 9 -1 8 -20 -1 -31 -17 -79 -6 -100 21 -34 44 -31 111 4 129
13 6 29 17 35 23 16 16 53 14 71 -5z"/>
<path d="M1496 1362 c-3 -5 -5 -51 -5 -103 1 -194 -80 -339 -245 -439 -34 -21
-42 -22 -72 -11 -77 28 -140 -63 -84 -119 31 -31 83 -27 112 8 13 16 49 43 80
61 172 97 281 279 282 476 1 106 -7 135 -39 135 -13 0 -26 -4 -29 -8z m41 -89
c2 -32 -1 -71 -6 -88 -8 -24 -8 -18 -4 26 3 31 1 64 -4 74 -10 17 -6 61 5 50
3 -2 7 -31 9 -62z m-127 -378 c-7 -8 -15 -13 -17 -11 -6 5 -48 -36 -48 -46 0
-5 -4 -8 -10 -9 -5 0 -19 -8 -30 -17 -11 -8 2 7 29 34 27 27 54 49 60 49 6 0
10 9 9 19 -1 13 2 15 10 7 7 -7 6 -15 -3 -26z m-242 -149 c4 -21 -14 -37 -35
-29 -14 5 -18 35 -6 47 12 12 38 1 41 -18z"/>
<path d="M708 1138 c-8 -7 -18 -20 -21 -29 -6 -18 18 -59 35 -59 6 0 31 -18
55 -41 85 -79 198 -106 306 -75 46 13 57 21 57 38 0 18 -3 20 -32 12 -18 -5
-72 -9 -120 -9 -84 0 -87 1 -145 40 -50 35 -58 45 -61 75 -3 34 -24 60 -47 60
-6 0 -18 -6 -27 -12z"/>
<path d="M1390 391 c0 -3 23 -35 50 -70 38 -48 50 -72 50 -98 0 -30 3 -34 23
-31 18 2 21 8 19 31 -3 22 9 43 53 97 l56 70 -28 0 c-20 0 -34 -8 -46 -27 -9
-16 -25 -39 -35 -52 l-19 -23 -36 50 c-23 30 -47 52 -62 54 -14 3 -25 2 -25
-1z"/>
<path d="M130 290 c0 -92 2 -100 19 -100 18 0 20 9 23 100 3 98 3 100 -19 100
-22 0 -23 -3 -23 -100z"/>
<path d="M220 290 c0 -93 1 -100 20 -100 17 0 20 8 22 85 l3 85 62 -85 c62
-84 77 -94 117 -79 13 5 16 24 16 100 0 91 -1 94 -23 94 -22 0 -23 -3 -19 -63
7 -108 3 -109 -66 -19 -57 74 -66 82 -98 82 l-34 0 0 -100z"/>
<path d="M490 370 c0 -17 7 -20 51 -20 l50 0 -2 -77 c-2 -73 -1 -78 19 -81 21
-3 22 0 22 80 l0 83 46 0 c37 0 48 4 50 18 2 15 -9 17 -117 17 -112 0 -119 -1
-119 -20z"/>
<path d="M767 372 c-21 -23 -23 -130 -3 -157 11 -15 30 -20 105 -23 87 -4 91
-4 91 17 0 19 -5 21 -73 21 -72 0 -97 10 -97 37 0 10 22 13 85 13 69 0 85 3
85 15 0 12 -16 15 -86 15 -76 0 -85 2 -82 18 3 14 16 17 86 20 74 3 82 5 82
22 0 18 -7 20 -88 20 -73 0 -92 -3 -105 -18z"/>
<path d="M1000 311 c0 -79 12 -109 43 -112 7 -1 45 -3 85 -5 70 -4 72 -3 72
20 0 23 -2 24 -67 21 -38 -2 -73 1 -80 7 -8 7 -13 36 -13 79 0 62 -2 69 -20
69 -18 0 -20 -7 -20 -79z"/>
<path d="M1230 312 c0 -107 5 -113 113 -119 l87 -6 0 26 c0 25 -1 25 -58 20
-90 -8 -102 2 -102 87 0 63 -2 70 -20 70 -18 0 -20 -7 -20 -78z"/>
<path d="M1655 297 c-27 -50 -51 -95 -53 -99 -2 -5 7 -8 21 -8 15 0 28 8 35
24 10 22 16 24 76 23 56 -2 68 -5 81 -24 15 -22 61 -33 53 -14 -1 5 -25 50
-53 100 -45 84 -52 91 -80 91 -28 0 -34 -8 -80 -93z m108 18 c9 -20 17 -39 17
-43 0 -4 -20 -7 -45 -7 -25 0 -45 1 -45 3 0 11 42 82 48 82 5 0 16 -16 25 -35z"/>
</g>
</svg>
